<?xml version="1.0" standalone="no"?><!DOCTYPE svg PUBLIC "-//W3C//DTD SVG 1.1//EN" "http://www.w3.org/Graphics/SVG/1.1/DTD/svg11.dtd"><svg t="1613073663222" class="icon" viewBox="0 0 1026 1024" version="1.1" xmlns="http://www.w3.org/2000/svg" p-id="2673" xmlns:xlink="http://www.w3.org/1999/xlink" width="200.390625" height="200"><defs><style type="text/css"></style></defs><path d="M782.272 341.76a272.112 272.112 0 0 0-540.528 0 225.12 225.12 0 0 0-150.816 373.968 24 24 0 0 0 35.872-31.888 177.072 177.072 0 0 1 133.296-294.688h0.128l3.2 0.16a24 24 0 0 0 24.56-23.184 224.096 224.096 0 0 1 448 0 24 24 0 0 0 24.56 23.184l4.24-0.224a177.12 177.12 0 0 1 132.432 294.752 24 24 0 0 0 35.872 31.888 225.12 225.12 0 0 0-150.816-373.968z" fill="#666666" p-id="2674"></path><path d="M510.576 735.888a24 24 0 0 0 24-24v-274.72l86.4 86.4a24 24 0 0 0 34.048-33.872l-126.688-126.688a24 24 0 0 0-33.936 0l-128.16 128.16a24 24 0 0 0 33.936 33.936l86.4-86.4v273.184a24 24 0 0 0 24 24z" fill="#1771B9" p-id="2675"></path><path d="M747.824 735.728a24 24 0 0 0-32.416 10.032 241.6 241.6 0 0 1-427.472 0 24 24 0 0 0-42.464 22.4 289.6 289.6 0 0 0 512.384 0 24 24 0 0 0-10.032-32.432z" fill="#666666" p-id="2676"></path></svg>